<?xml version="1.0" standalone="no"?>
<!DOCTYPE svg PUBLIC "-//W3C//DTD SVG 20010904//EN"
 "http://www.w3.org/TR/2001/REC-SVG-20010904/DTD/svg10.dtd">
<svg version="1.0" xmlns="http://www.w3.org/2000/svg"
 width="512.000000pt" height="512.000000pt" viewBox="0 0 512.000000 512.000000"
 preserveAspectRatio="xMidYMid meet">

<g transform="translate(0.000000,512.000000) scale(0.100000,-0.100000)"
fill="#000000" stroke="none">
<path d="M2000 5104 c-119 -32 -230 -109 -292 -205 -28 -44 -36 -50 -58 -44
-14 3 -78 9 -142 12 -108 5 -125 3 -201 -20 -139 -44 -246 -123 -326 -242 -64
-97 -94 -185 -101 -303 l-5 -94 -57 -23 c-156 -63 -275 -194 -340 -372 -15
-44 -21 -87 -24 -175 l-3 -117 -69 -68 c-107 -106 -153 -214 -153 -365 0 -57
6 -105 18 -140 l18 -53 -37 -55 c-41 -60 -98 -196 -98 -233 0 -32 40 -67 77
-67 38 0 61 25 85 92 55 158 197 294 360 347 20 7 74 16 120 21 67 6 85 12
100 30 23 29 23 72 -1 101 -18 22 -26 24 -92 21 -121 -5 -219 -34 -323 -97
-32 -19 -62 -35 -67 -35 -16 0 -9 143 9 192 26 73 76 135 141 176 78 49 87 66
72 138 -32 162 9 303 120 415 70 70 176 124 275 140 85 14 186 -3 283 -46 53
-24 62 -26 87 -13 35 16 52 58 38 95 -18 52 -211 123 -332 123 l-55 0 5 74
c10 148 110 292 256 363 66 33 85 38 167 41 176 8 265 -37 402 -201 47 -56
124 -37 131 32 5 47 -65 143 -151 209 l-29 21 31 44 c35 51 83 90 149 120 72
33 198 31 274 -5 75 -35 138 -94 174 -165 29 -58 29 -59 34 -280 5 -212 6
-224 27 -244 27 -27 75 -29 103 -4 18 17 20 31 20 184 1 270 21 350 112 438
115 111 300 132 428 49 43 -28 108 -94 115 -117 4 -12 -18 -41 -68 -91 -88
-90 -114 -137 -97 -178 11 -27 46 -50 76 -50 8 0 56 42 107 94 76 77 103 97
152 116 83 32 206 38 291 15 187 -51 334 -236 334 -421 l0 -41 -82 -6 c-135
-9 -280 -67 -306 -120 -16 -34 0 -74 39 -96 25 -14 32 -13 95 16 146 67 280
66 421 -3 131 -64 218 -173 249 -314 15 -65 15 -86 4 -166 -14 -107 -9 -124
51 -154 100 -52 170 -165 177 -290 3 -46 0 -80 -6 -84 -5 -3 -41 12 -78 34
-90 51 -180 80 -279 90 -109 11 -148 -8 -148 -71 0 -51 30 -70 126 -80 101
-10 176 -36 256 -90 150 -100 251 -286 251 -464 0 -131 -58 -279 -145 -373
l-53 -57 -43 49 c-24 28 -43 54 -41 58 1 5 3 33 3 64 1 44 -3 60 -19 77 -49
49 -132 6 -132 -69 0 -54 -26 -102 -85 -159 -42 -41 -55 -60 -55 -82 0 -37 37
-73 74 -73 28 0 121 59 129 83 7 21 67 -75 87 -141 41 -131 20 -274 -57 -389
-46 -70 -103 -118 -183 -156 -58 -28 -75 -31 -160 -32 -114 0 -170 17 -267 81
-37 24 -75 44 -84 44 -33 0 -72 -44 -72 -80 0 -39 43 -81 133 -129 98 -51 155
-65 272 -66 l108 0 0 -51 c0 -70 -33 -193 -72 -267 -38 -73 -162 -202 -230
-239 -70 -39 -153 -68 -220 -77 l-59 -8 8 46 c23 139 -14 330 -69 360 -34 20
-77 6 -97 -31 -14 -24 -14 -33 2 -92 67 -252 -70 -501 -315 -570 -71 -20 -95
-50 -82 -99 6 -18 21 -38 36 -47 35 -19 92 -5 203 50 92 45 166 106 216 178
l34 49 80 7 c159 12 306 70 430 169 177 142 273 332 283 557 l4 115 50 30
c113 68 227 225 262 361 19 72 21 210 5 285 l-11 52 50 46 c99 91 172 211 208
341 28 101 26 283 -4 380 -26 82 -67 167 -105 218 -25 33 -25 35 -9 75 11 30
16 76 16 162 0 108 -2 126 -27 185 -32 76 -102 169 -155 207 l-37 27 -1 115
c0 130 -23 213 -86 318 -61 101 -194 209 -310 252 -27 10 -28 14 -28 78 -1
204 -119 407 -299 512 -112 65 -157 76 -311 74 -74 -1 -147 -3 -161 -5 -22 -2
-34 8 -75 62 -113 149 -317 228 -497 191 -112 -24 -235 -102 -305 -194 l-21
-28 -65 69 c-39 41 -90 82 -124 100 -110 59 -248 76 -362 46z"/>
<path d="M1454 3891 c-57 -26 -111 -92 -124 -155 -8 -35 -10 -198 -8 -511 l3
-460 24 -42 25 -43 -25 -42 -24 -43 -3 -460 c-4 -516 -2 -538 55 -605 70 -82
55 -80 599 -80 l481 0 47 24 48 24 51 -24 c48 -22 65 -24 203 -24 198 0 201 2
206 130 3 85 5 91 34 121 61 60 157 42 190 -36 8 -19 14 -65 14 -103 0 -59 3
-72 23 -90 22 -21 33 -22 173 -22 170 0 204 7 258 52 60 49 76 94 76 219 l0
107 48 7 c149 22 242 124 242 264 -1 142 -93 249 -232 269 l-53 7 -5 122 c-4
106 -8 125 -28 152 l-23 32 23 32 c22 30 23 42 26 228 l3 197 -27 21 c-37 29
-78 27 -103 -5 -19 -25 -21 -40 -21 -189 0 -156 -1 -162 -23 -183 -20 -19 -35
-22 -115 -22 l-92 0 0 34 c0 85 -57 175 -142 222 -46 25 -63 29 -128 29 -87
-1 -133 -20 -191 -82 -48 -49 -69 -92 -76 -154 l-6 -49 -113 0 -114 0 0 165
c0 163 0 166 -25 190 -21 22 -33 25 -100 25 -116 0 -165 35 -165 117 0 33 7
50 29 75 28 31 32 32 126 38 135 7 135 7 135 197 0 140 1 145 25 169 l25 25
456 -3 456 -3 19 -24 c17 -20 19 -40 19 -165 0 -129 2 -144 20 -164 27 -29 83
-29 110 -2 18 18 20 33 20 183 0 136 -3 169 -19 203 -22 48 -82 101 -131 114
-20 6 -231 10 -505 10 l-470 0 -52 -24 -51 -24 -48 24 c-44 22 -58 24 -211 24
-161 0 -164 0 -188 -25 -14 -13 -25 -36 -25 -50 0 -14 11 -37 25 -50 23 -24
28 -25 175 -25 147 0 152 -1 175 -25 23 -22 25 -32 25 -120 l0 -95 -48 0 c-59
0 -140 -38 -178 -83 -147 -174 -36 -444 184 -447 l42 0 0 -115 0 -115 -114 0
-114 0 -7 47 c-21 141 -130 236 -269 235 -73 0 -122 -20 -177 -69 -50 -45 -78
-99 -86 -164 l-6 -49 -97 0 c-148 0 -135 -48 -135 502 l0 460 24 19 c21 17 41
19 180 19 152 0 158 1 179 23 29 31 29 77 -1 105 -22 21 -32 22 -193 22 -143
0 -175 -3 -210 -19z m1721 -1005 c53 -23 75 -67 75 -154 0 -40 4 -82 10 -92
16 -30 67 -40 203 -40 174 0 167 8 167 -172 0 -144 10 -188 45 -202 9 -3 48
-6 86 -6 81 0 122 -17 144 -60 24 -47 19 -95 -14 -132 -28 -31 -33 -33 -122
-39 -84 -6 -95 -9 -116 -33 -22 -26 -23 -35 -23 -172 0 -185 0 -184 -134 -184
l-93 0 -7 46 c-18 137 -116 231 -251 242 -67 5 -128 -15 -190 -62 -41 -32 -85
-114 -92 -176 l-6 -50 -87 0 c-73 0 -92 3 -114 21 -26 20 -26 21 -26 163 0
130 -2 146 -21 170 -18 23 -27 26 -82 26 -84 0 -131 15 -161 51 -30 35 -34 84
-11 129 23 44 63 60 150 60 67 0 79 3 100 25 25 24 25 27 25 189 l0 164 170 4
c208 4 202 0 211 128 7 101 23 134 72 155 41 18 50 18 92 1z m-1141 -8 c43
-19 58 -54 65 -150 9 -126 4 -122 211 -126 l170 -3 0 -113 0 -113 -54 -6
c-139 -14 -235 -124 -236 -268 0 -140 93 -242 243 -264 l47 -7 0 -90 c0 -81
-2 -91 -25 -113 l-24 -25 -454 0 c-433 0 -456 1 -478 19 l-24 19 0 460 c0 438
1 461 19 481 18 19 30 21 151 21 138 0 189 10 205 40 6 10 10 48 10 85 0 75
17 125 51 149 27 19 87 21 123 4z"/>
<path d="M169 2330 c-9 -5 -22 -22 -28 -38 -10 -24 -8 -39 12 -95 36 -99 84
-173 164 -254 l71 -72 -14 -83 c-42 -234 66 -475 275 -615 l44 -30 3 -94 c13
-392 320 -715 707 -745 l86 -7 45 -58 c178 -229 487 -301 749 -175 82 39 183
126 232 198 l33 50 26 -38 c70 -104 211 -214 272 -214 23 0 38 7 53 26 40 50
27 83 -48 129 -123 74 -203 196 -221 336 -5 40 -10 165 -10 277 0 188 -1 203
-20 222 -27 27 -81 26 -106 -1 -17 -19 -19 -44 -24 -288 l-5 -266 -37 -78
c-111 -231 -383 -330 -607 -221 -65 32 -160 119 -195 178 -60 104 -78 266 -42
365 22 59 20 78 -9 106 -31 32 -75 33 -102 3 -46 -50 -74 -225 -54 -332 6 -33
9 -61 7 -63 -2 -2 -39 3 -82 12 -206 42 -386 195 -459 390 -23 61 -48 206 -39
229 3 7 31 10 84 8 139 -6 305 51 398 137 42 39 45 90 6 120 -37 29 -53 27
-120 -19 -118 -80 -251 -107 -374 -76 -280 72 -416 431 -255 674 l27 41 54
-45 c64 -52 102 -57 139 -19 40 39 33 70 -26 124 -60 54 -84 97 -94 168 -8 60
-31 86 -77 86 -22 0 -38 -8 -55 -28 -22 -25 -24 -34 -18 -89 6 -61 6 -61 -35
-104 -33 -34 -44 -40 -59 -33 -39 22 -134 167 -156 241 -17 57 -72 86 -116 60z"/>
</g>
</svg>
